  0
SECTION
  2
HEADER
  9
$ACADVER
  1
AC1009
  9
$EXTMIN
 10
0.0
 20
0.0
 30
0.0
  9
$EXTMAX
 10
1000.0
 20
1000.0
 30
0.0
  9
$FILLMODE
 70
 0
  9
$SPLFRAME
 70
 1
  0
ENDSEC
  0
SECTION
  2
TABLES
  0
TABLE
  2
LAYER
 70
1
  0
LAYER
  2
0
 70
     0
 62
     7
  6
CONTINUOUS
  0
ENDTAB
  0
ENDSEC
  0
SECTION
  2
ENTITIES
  0
LINE
  8
0
 62
     0
 10
178.525
 20
132.902
 30
0.0
 11
178.682
 21
132.895
 31
0.0
  0
LINE
  8
0
 62
     0
 10
178.682
 20
132.895
 30
0.0
 11
178.838
 21
132.877
 31
0.0
  0
LINE
  8
0
 62
     0
 10
178.838
 20
132.877
 30
0.0
 11
178.992
 21
132.847
 31
0.0
  0
LINE
  8
0
 62
     0
 10
178.992
 20
132.847
 30
0.0
 11
179.142
 21
132.804
 31
0.0
  0
LINE
  8
0
 62
     0
 10
179.142
 20
132.804
 30
0.0
 11
179.29
 21
132.749
 31
0.0
  0
LINE
  8
0
 62
     0
 10
179.29
 20
132.749
 30
0.0
 11
179.433
 21
132.684
 31
0.0
  0
LINE
  8
0
 62
     0
 10
179.433
 20
132.684
 30
0.0
 11
179.57
 21
132.607
 31
0.0
  0
LINE
  8
0
 62
     0
 10
179.57
 20
132.607
 30
0.0
 11
179.7
 21
132.52
 31
0.0
  0
LINE
  8
0
 62
     0
 10
179.7
 20
132.52
 30
0.0
 11
179.823
 21
132.423
 31
0.0
  0
LINE
  8
0
 62
     0
 10
179.823
 20
132.423
 30
0.0
 11
179.939
 21
132.316
 31
0.0
  0
LINE
  8
0
 62
     0
 10
179.939
 20
132.316
 30
0.0
 11
180.045
 21
132.201
 31
0.0
  0
LINE
  8
0
 62
     0
 10
180.045
 20
132.201
 30
0.0
 11
180.143
 21
132.078
 31
0.0
  0
LINE
  8
0
 62
     0
 10
180.143
 20
132.078
 30
0.0
 11
180.23
 21
131.947
 31
0.0
  0
LINE
  8
0
 62
     0
 10
180.23
 20
131.947
 30
0.0
 11
180.306
 21
131.809
 31
0.0
  0
LINE
  8
0
 62
     0
 10
180.306
 20
131.809
 30
0.0
 11
180.373
 21
131.667
 31
0.0
  0
LINE
  8
0
 62
     0
 10
180.373
 20
131.667
 30
0.0
 11
180.426
 21
131.521
 31
0.0
  0
LINE
  8
0
 62
     0
 10
180.426
 20
131.521
 30
0.0
 11
180.469
 21
131.368
 31
0.0
  0
LINE
  8
0
 62
     0
 10
180.469
 20
131.368
 30
0.0
 11
180.501
 21
131.215
 31
0.0
  0
LINE
  8
0
 62
     0
 10
180.501
 20
131.215
 30
0.0
 11
180.519
 21
131.058
 31
0.0
  0
LINE
  8
0
 62
     0
 10
180.519
 20
131.058
 30
0.0
 11
180.525
 21
130.901
 31
0.0
  0
LINE
  8
0
 62
     0
 10
180.525
 20
130.901
 30
0.0
 11
180.525
 21
2.09737
 31
0.0
  0
LINE
  8
0
 62
     0
 10
180.525
 20
2.09737
 30
0.0
 11
180.519
 21
1.94028
 31
0.0
  0
LINE
  8
0
 62
     0
 10
180.519
 20
1.94028
 30
0.0
 11
180.501
 21
1.78456
 31
0.0
  0
LINE
  8
0
 62
     0
 10
180.501
 20
1.78456
 30
0.0
 11
180.469
 21
1.63022
 31
0.0
  0
LINE
  8
0
 62
     0
 10
180.469
 20
1.63022
 30
0.0
 11
180.426
 21
1.48001
 31
0.0
  0
LINE
  8
0
 62
     0
 10
180.426
 20
1.48001
 30
0.0
 11
180.373
 21
1.33256
 31
0.0
  0
LINE
  8
0
 62
     0
 10
180.373
 20
1.33256
 30
0.0
 11
180.306
 21
1.18925
 31
0.0
  0
LINE
  8
0
 62
     0
 10
180.306
 20
1.18925
 30
0.0
 11
180.23
 21
1.05282
 31
0.0
  0
LINE
  8
0
 62
     0
 10
180.23
 20
1.05282
 30
0.0
 11
180.143
 21
0.921907
 31
0.0
  0
LINE
  8
0
 62
     0
 10
180.143
 20
0.921907
 30
0.0
 11
180.045
 21
0.799264
 31
0.0
  0
LINE
  8
0
 62
     0
 10
180.045
 20
0.799264
 30
0.0
 11
179.939
 21
0.683507
 31
0.0
  0
LINE
  8
0
 62
     0
 10
179.939
 20
0.683507
 30
0.0
 11
179.823
 21
0.577398
 31
0.0
  0
LINE
  8
0
 62
     0
 10
179.823
 20
0.577398
 30
0.0
 11
179.7
 21
0.479559
 31
0.0
  0
LINE
  8
0
 62
     0
 10
179.7
 20
0.479559
 30
0.0
 11
179.57
 21
0.39274
 31
0.0
  0
LINE
  8
0
 62
     0
 10
179.57
 20
0.39274
 30
0.0
 11
179.433
 21
0.315571
 31
0.0
  0
LINE
  8
0
 62
     0
 10
179.433
 20
0.315571
 30
0.0
 11
179.29
 21
0.249425
 31
0.0
  0
LINE
  8
0
 62
     0
 10
179.29
 20
0.249425
 30
0.0
 11
179.142
 21
0.195682
 31
0.0
  0
LINE
  8
0
 62
     0
 10
179.142
 20
0.195682
 30
0.0
 11
178.992
 21
0.152962
 31
0.0
  0
LINE
  8
0
 62
     0
 10
178.992
 20
0.152962
 30
0.0
 11
178.838
 21
0.121267
 31
0.0
  0
LINE
  8
0
 62
     0
 10
178.838
 20
0.121267
 30
0.0
 11
178.682
 21
0.103353
 31
0.0
  0
LINE
  8
0
 62
     0
 10
178.682
 20
0.103353
 30
0.0
 11
178.525
 21
0.0978408
 31
0.0
  0
LINE
  8
0
 62
     0
 10
178.525
 20
0.0978408
 30
0.0
 11
2.096
 21
0.0978408
 31
0.0
  0
LINE
  8
0
 62
     0
 10
2.096
 20
0.0978408
 30
0.0
 11
1.9389
 21
0.103353
 31
0.0
  0
LINE
  8
0
 62
     0
 10
1.9389
 20
0.103353
 30
0.0
 11
1.7818
 21
0.121267
 31
0.0
  0
LINE
  8
0
 62
     0
 10
1.7818
 20
0.121267
 30
0.0
 11
1.62884
 21
0.152962
 31
0.0
  0
LINE
  8
0
 62
     0
 10
1.62884
 20
0.152962
 30
0.0
 11
1.47588
 21
0.195682
 31
0.0
  0
LINE
  8
0
 62
     0
 10
1.47588
 20
0.195682
 30
0.0
 11
1.32981
 21
0.249425
 31
0.0
  0
LINE
  8
0
 62
     0
 10
1.32981
 20
0.249425
 30
0.0
 11
1.18787
 21
0.315571
 31
0.0
  0
LINE
  8
0
 62
     0
 10
1.18787
 20
0.315571
 30
0.0
 11
1.05006
 21
0.39274
 31
0.0
  0
LINE
  8
0
 62
     0
 10
1.05006
 20
0.39274
 30
0.0
 11
0.919152
 21
0.479559
 31
0.0
  0
LINE
  8
0
 62
     0
 10
0.919152
 20
0.479559
 30
0.0
 11
0.796505
 21
0.577398
 31
0.0
  0
LINE
  8
0
 62
     0
 10
0.796505
 20
0.577398
 30
0.0
 11
0.680752
 21
0.683507
 31
0.0
  0
LINE
  8
0
 62
     0
 10
0.680752
 20
0.683507
 30
0.0
 11
0.574643
 21
0.799264
 31
0.0
  0
LINE
  8
0
 62
     0
 10
0.574643
 20
0.799264
 30
0.0
 11
0.4768
 21
0.921907
 31
0.0
  0
LINE
  8
0
 62
     0
 10
0.4768
 20
0.921907
 30
0.0
 11
0.389985
 21
1.05282
 31
0.0
  0
LINE
  8
0
 62
     0
 10
0.389985
 20
1.05282
 30
0.0
 11
0.312815
 21
1.18925
 31
0.0
  0
LINE
  8
0
 62
     0
 10
0.312815
 20
1.18925
 30
0.0
 11
0.248047
 21
1.33256
 31
0.0
  0
LINE
  8
0
 62
     0
 10
0.248047
 20
1.33256
 30
0.0
 11
0.192925
 21
1.48001
 31
0.0
  0
LINE
  8
0
 62
     0
 10
0.192925
 20
1.48001
 30
0.0
 11
0.150206
 21
1.63022
 31
0.0
  0
LINE
  8
0
 62
     0
 10
0.150206
 20
1.63022
 30
0.0
 11
0.119889
 21
1.78456
 31
0.0
  0
LINE
  8
0
 62
     0
 10
0.119889
 20
1.78456
 30
0.0
 11
0.101975
 21
1.94028
 31
0.0
  0
LINE
  8
0
 62
     0
 10
0.101975
 20
1.94028
 30
0.0
 11
0.0950846
 21
2.09737
 31
0.0
  0
LINE
  8
0
 62
     0
 10
0.0950846
 20
2.09737
 30
0.0
 11
0.0950846
 21
130.901
 31
0.0
  0
LINE
  8
0
 62
     0
 10
0.0950846
 20
130.901
 30
0.0
 11
0.101975
 21
131.058
 31
0.0
  0
LINE
  8
0
 62
     0
 10
0.101975
 20
131.058
 30
0.0
 11
0.119889
 21
131.215
 31
0.0
  0
LINE
  8
0
 62
     0
 10
0.119889
 20
131.215
 30
0.0
 11
0.150206
 21
131.368
 31
0.0
  0
LINE
  8
0
 62
     0
 10
0.150206
 20
131.368
 30
0.0
 11
0.192925
 21
131.521
 31
0.0
  0
LINE
  8
0
 62
     0
 10
0.192925
 20
131.521
 30
0.0
 11
0.248047
 21
131.667
 31
0.0
  0
LINE
  8
0
 62
     0
 10
0.248047
 20
131.667
 30
0.0
 11
0.312815
 21
131.809
 31
0.0
  0
LINE
  8
0
 62
     0
 10
0.312815
 20
131.809
 30
0.0
 11
0.389985
 21
131.947
 31
0.0
  0
LINE
  8
0
 62
     0
 10
0.389985
 20
131.947
 30
0.0
 11
0.4768
 21
132.078
 31
0.0
  0
LINE
  8
0
 62
     0
 10
0.4768
 20
132.078
 30
0.0
 11
0.574643
 21
132.201
 31
0.0
  0
LINE
  8
0
 62
     0
 10
0.574643
 20
132.201
 30
0.0
 11
0.680752
 21
132.316
 31
0.0
  0
LINE
  8
0
 62
     0
 10
0.680752
 20
132.316
 30
0.0
 11
0.796505
 21
132.423
 31
0.0
  0
LINE
  8
0
 62
     0
 10
0.796505
 20
132.423
 30
0.0
 11
0.919152
 21
132.52
 31
0.0
  0
LINE
  8
0
 62
     0
 10
0.919152
 20
132.52
 30
0.0
 11
1.05006
 21
132.607
 31
0.0
  0
LINE
  8
0
 62
     0
 10
1.05006
 20
132.607
 30
0.0
 11
1.18787
 21
132.684
 31
0.0
  0
LINE
  8
0
 62
     0
 10
1.18787
 20
132.684
 30
0.0
 11
1.32981
 21
132.749
 31
0.0
  0
LINE
  8
0
 62
     0
 10
1.32981
 20
132.749
 30
0.0
 11
1.47588
 21
132.804
 31
0.0
  0
LINE
  8
0
 62
     0
 10
1.47588
 20
132.804
 30
0.0
 11
1.62884
 21
132.847
 31
0.0
  0
LINE
  8
0
 62
     0
 10
1.62884
 20
132.847
 30
0.0
 11
1.7818
 21
132.877
 31
0.0
  0
LINE
  8
0
 62
     0
 10
1.7818
 20
132.877
 30
0.0
 11
1.9389
 21
132.895
 31
0.0
  0
LINE
  8
0
 62
     0
 10
1.9389
 20
132.895
 30
0.0
 11
2.096
 21
132.902
 31
0.0
  0
LINE
  8
0
 62
     0
 10
2.096
 20
132.902
 30
0.0
 11
178.525
 21
132.902
 31
0.0
  0
LINE
  8
0
 62
     0
 10
152.509
 20
20.0835
 30
0.0
 11
160.539
 21
8.6155
 31
0.0
  0
LINE
  8
0
 62
     0
 10
160.539
 20
8.6155
 30
0.0
 11
172.007
 21
16.6453
 31
0.0
  0
LINE
  8
0
 62
     0
 10
172.007
 20
16.6453
 30
0.0
 11
163.977
 21
28.1134
 31
0.0
  0
LINE
  8
0
 62
     0
 10
163.977
 20
28.1134
 30
0.0
 11
152.509
 21
20.0835
 31
0.0
  0
LINE
  8
0
 62
     0
 10
137.156
 20
33.6944
 30
0.0
 11
147.88
 21
24.6958
 31
0.0
  0
LINE
  8
0
 62
     0
 10
147.88
 20
24.6958
 30
0.0
 11
156.88
 21
35.4196
 31
0.0
  0
LINE
  8
0
 62
     0
 10
156.88
 20
35.4196
 30
0.0
 11
146.155
 21
44.4183
 31
0.0
  0
LINE
  8
0
 62
     0
 10
146.155
 20
44.4183
 30
0.0
 11
137.156
 21
33.6944
 31
0.0
  0
LINE
  8
0
 62
     0
 10
117.158
 20
49.1765
 30
0.0
 11
131.157
 21
49.1765
 31
0.0
  0
LINE
  8
0
 62
     0
 10
131.157
 20
49.1765
 30
0.0
 11
131.157
 21
35.1772
 31
0.0
  0
LINE
  8
0
 62
     0
 10
131.157
 20
35.1772
 30
0.0
 11
117.158
 21
35.1772
 31
0.0
  0
LINE
  8
0
 62
     0
 10
117.158
 20
35.1772
 30
0.0
 11
117.158
 21
49.1765
 31
0.0
  0
LINE
  8
0
 62
     0
 10
98.1082
 20
49.1765
 30
0.0
 11
112.107
 21
49.1765
 31
0.0
  0
LINE
  8
0
 62
     0
 10
112.107
 20
49.1765
 30
0.0
 11
112.107
 21
35.1772
 31
0.0
  0
LINE
  8
0
 62
     0
 10
112.107
 20
35.1772
 30
0.0
 11
98.1082
 21
35.1772
 31
0.0
  0
LINE
  8
0
 62
     0
 10
98.1082
 20
35.1772
 30
0.0
 11
98.1082
 21
49.1765
 31
0.0
  0
LINE
  8
0
 62
     0
 10
79.0582
 20
49.1765
 30
0.0
 11
93.0575
 21
49.1765
 31
0.0
  0
LINE
  8
0
 62
     0
 10
93.0575
 20
49.1765
 30
0.0
 11
93.0575
 21
35.1772
 31
0.0
  0
LINE
  8
0
 62
     0
 10
93.0575
 20
35.1772
 30
0.0
 11
79.0582
 21
35.1772
 31
0.0
  0
LINE
  8
0
 62
     0
 10
79.0582
 20
35.1772
 30
0.0
 11
79.0582
 21
49.1765
 31
0.0
  0
LINE
  8
0
 62
     0
 10
60.0082
 20
49.1765
 30
0.0
 11
74.0075
 21
49.1765
 31
0.0
  0
LINE
  8
0
 62
     0
 10
74.0075
 20
49.1765
 30
0.0
 11
74.0075
 21
35.1772
 31
0.0
  0
LINE
  8
0
 62
     0
 10
74.0075
 20
35.1772
 30
0.0
 11
60.0082
 21
35.1772
 31
0.0
  0
LINE
  8
0
 62
     0
 10
60.0082
 20
35.1772
 30
0.0
 11
60.0082
 21
49.1765
 31
0.0
  0
LINE
  8
0
 62
     0
 10
40.9582
 20
49.1765
 30
0.0
 11
54.9575
 21
49.1765
 31
0.0
  0
LINE
  8
0
 62
     0
 10
54.9575
 20
49.1765
 30
0.0
 11
54.9575
 21
35.1772
 31
0.0
  0
LINE
  8
0
 62
     0
 10
54.9575
 20
35.1772
 30
0.0
 11
40.9582
 21
35.1772
 31
0.0
  0
LINE
  8
0
 62
     0
 10
40.9582
 20
35.1772
 30
0.0
 11
40.9582
 21
49.1765
 31
0.0
  0
LINE
  8
0
 62
     0
 10
21.9081
 20
49.1765
 30
0.0
 11
35.9075
 21
49.1765
 31
0.0
  0
LINE
  8
0
 62
     0
 10
35.9075
 20
49.1765
 30
0.0
 11
35.9075
 21
35.1772
 31
0.0
  0
LINE
  8
0
 62
     0
 10
35.9075
 20
35.1772
 30
0.0
 11
21.9081
 21
35.1772
 31
0.0
  0
LINE
  8
0
 62
     0
 10
21.9081
 20
35.1772
 30
0.0
 11
21.9081
 21
49.1765
 31
0.0
  0
LINE
  8
0
 62
     0
 10
136.208
 20
68.2265
 30
0.0
 11
150.207
 21
68.2265
 31
0.0
  0
LINE
  8
0
 62
     0
 10
150.207
 20
68.2265
 30
0.0
 11
150.207
 21
54.2272
 31
0.0
  0
LINE
  8
0
 62
     0
 10
150.207
 20
54.2272
 30
0.0
 11
136.208
 21
54.2272
 31
0.0
  0
LINE
  8
0
 62
     0
 10
136.208
 20
54.2272
 30
0.0
 11
136.208
 21
68.2265
 31
0.0
  0
LINE
  8
0
 62
     0
 10
117.158
 20
68.2265
 30
0.0
 11
131.157
 21
68.2265
 31
0.0
  0
LINE
  8
0
 62
     0
 10
131.157
 20
68.2265
 30
0.0
 11
131.157
 21
54.2272
 31
0.0
  0
LINE
  8
0
 62
     0
 10
131.157
 20
54.2272
 30
0.0
 11
117.158
 21
54.2272
 31
0.0
  0
LINE
  8
0
 62
     0
 10
117.158
 20
54.2272
 30
0.0
 11
117.158
 21
68.2265
 31
0.0
  0
LINE
  8
0
 62
     0
 10
98.1082
 20
68.2265
 30
0.0
 11
112.107
 21
68.2265
 31
0.0
  0
LINE
  8
0
 62
     0
 10
112.107
 20
68.2265
 30
0.0
 11
112.107
 21
54.2272
 31
0.0
  0
LINE
  8
0
 62
     0
 10
112.107
 20
54.2272
 30
0.0
 11
98.1082
 21
54.2272
 31
0.0
  0
LINE
  8
0
 62
     0
 10
98.1082
 20
54.2272
 30
0.0
 11
98.1082
 21
68.2265
 31
0.0
  0
LINE
  8
0
 62
     0
 10
79.0582
 20
68.2265
 30
0.0
 11
93.0575
 21
68.2265
 31
0.0
  0
LINE
  8
0
 62
     0
 10
93.0575
 20
68.2265
 30
0.0
 11
93.0575
 21
54.2272
 31
0.0
  0
LINE
  8
0
 62
     0
 10
93.0575
 20
54.2272
 30
0.0
 11
79.0582
 21
54.2272
 31
0.0
  0
LINE
  8
0
 62
     0
 10
79.0582
 20
54.2272
 30
0.0
 11
79.0582
 21
68.2265
 31
0.0
  0
LINE
  8
0
 62
     0
 10
60.0082
 20
68.2265
 30
0.0
 11
74.0075
 21
68.2265
 31
0.0
  0
LINE
  8
0
 62
     0
 10
74.0075
 20
68.2265
 30
0.0
 11
74.0075
 21
54.2272
 31
0.0
  0
LINE
  8
0
 62
     0
 10
74.0075
 20
54.2272
 30
0.0
 11
60.0082
 21
54.2272
 31
0.0
  0
LINE
  8
0
 62
     0
 10
60.0082
 20
54.2272
 30
0.0
 11
60.0082
 21
68.2265
 31
0.0
  0
LINE
  8
0
 62
     0
 10
40.9582
 20
68.2265
 30
0.0
 11
54.9575
 21
68.2265
 31
0.0
  0
LINE
  8
0
 62
     0
 10
54.9575
 20
68.2265
 30
0.0
 11
54.9575
 21
54.2272
 31
0.0
  0
LINE
  8
0
 62
     0
 10
54.9575
 20
54.2272
 30
0.0
 11
40.9582
 21
54.2272
 31
0.0
  0
LINE
  8
0
 62
     0
 10
40.9582
 20
54.2272
 30
0.0
 11
40.9582
 21
68.2265
 31
0.0
  0
LINE
  8
0
 62
     0
 10
17.1456
 20
68.2265
 30
0.0
 11
31.1451
 21
68.2265
 31
0.0
  0
LINE
  8
0
 62
     0
 10
31.1451
 20
68.2265
 30
0.0
 11
31.1451
 21
54.2272
 31
0.0
  0
LINE
  8
0
 62
     0
 10
31.1451
 20
54.2272
 30
0.0
 11
17.1456
 21
54.2272
 31
0.0
  0
LINE
  8
0
 62
     0
 10
17.1456
 20
54.2272
 30
0.0
 11
17.1456
 21
68.2265
 31
0.0
  0
LINE
  8
0
 62
     0
 10
117.158
 20
87.2765
 30
0.0
 11
131.157
 21
87.2765
 31
0.0
  0
LINE
  8
0
 62
     0
 10
131.157
 20
87.2765
 30
0.0
 11
131.157
 21
73.2772
 31
0.0
  0
LINE
  8
0
 62
     0
 10
131.157
 20
73.2772
 30
0.0
 11
117.158
 21
73.2772
 31
0.0
  0
LINE
  8
0
 62
     0
 10
117.158
 20
73.2772
 30
0.0
 11
117.158
 21
87.2765
 31
0.0
  0
LINE
  8
0
 62
     0
 10
98.1082
 20
87.2765
 30
0.0
 11
112.107
 21
87.2765
 31
0.0
  0
LINE
  8
0
 62
     0
 10
112.107
 20
87.2765
 30
0.0
 11
112.107
 21
73.2772
 31
0.0
  0
LINE
  8
0
 62
     0
 10
112.107
 20
73.2772
 30
0.0
 11
98.1082
 21
73.2772
 31
0.0
  0
LINE
  8
0
 62
     0
 10
98.1082
 20
73.2772
 30
0.0
 11
98.1082
 21
87.2765
 31
0.0
  0
LINE
  8
0
 62
     0
 10
79.0582
 20
87.2765
 30
0.0
 11
93.0575
 21
87.2765
 31
0.0
  0
LINE
  8
0
 62
     0
 10
93.0575
 20
87.2765
 30
0.0
 11
93.0575
 21
73.2772
 31
0.0
  0
LINE
  8
0
 62
     0
 10
93.0575
 20
73.2772
 30
0.0
 11
79.0582
 21
73.2772
 31
0.0
  0
LINE
  8
0
 62
     0
 10
79.0582
 20
73.2772
 30
0.0
 11
79.0582
 21
87.2765
 31
0.0
  0
LINE
  8
0
 62
     0
 10
60.0082
 20
87.2765
 30
0.0
 11
74.0075
 21
87.2765
 31
0.0
  0
LINE
  8
0
 62
     0
 10
74.0075
 20
87.2765
 30
0.0
 11
74.0075
 21
73.2772
 31
0.0
  0
LINE
  8
0
 62
     0
 10
74.0075
 20
73.2772
 30
0.0
 11
60.0082
 21
73.2772
 31
0.0
  0
LINE
  8
0
 62
     0
 10
60.0082
 20
73.2772
 30
0.0
 11
60.0082
 21
87.2765
 31
0.0
  0
LINE
  8
0
 62
     0
 10
40.9582
 20
87.2765
 30
0.0
 11
54.9575
 21
87.2765
 31
0.0
  0
LINE
  8
0
 62
     0
 10
54.9575
 20
87.2765
 30
0.0
 11
54.9575
 21
73.2772
 31
0.0
  0
LINE
  8
0
 62
     0
 10
54.9575
 20
73.2772
 30
0.0
 11
40.9582
 21
73.2772
 31
0.0
  0
LINE
  8
0
 62
     0
 10
40.9582
 20
73.2772
 30
0.0
 11
40.9582
 21
87.2765
 31
0.0
  0
LINE
  8
0
 62
     0
 10
21.9081
 20
87.2765
 30
0.0
 11
35.9075
 21
87.2765
 31
0.0
  0
LINE
  8
0
 62
     0
 10
35.9075
 20
87.2765
 30
0.0
 11
35.9075
 21
73.2772
 31
0.0
  0
LINE
  8
0
 62
     0
 10
35.9075
 20
73.2772
 30
0.0
 11
21.9081
 21
73.2772
 31
0.0
  0
LINE
  8
0
 62
     0
 10
21.9081
 20
73.2772
 30
0.0
 11
21.9081
 21
87.2765
 31
0.0
  0
LINE
  8
0
 62
     0
 10
117.158
 20
106.327
 30
0.0
 11
131.157
 21
106.327
 31
0.0
  0
LINE
  8
0
 62
     0
 10
131.157
 20
106.327
 30
0.0
 11
131.157
 21
92.3272
 31
0.0
  0
LINE
  8
0
 62
     0
 10
131.157
 20
92.3272
 30
0.0
 11
117.158
 21
92.3272
 31
0.0
  0
LINE
  8
0
 62
     0
 10
117.158
 20
92.3272
 30
0.0
 11
117.158
 21
106.327
 31
0.0
  0
LINE
  8
0
 62
     0
 10
98.1082
 20
106.327
 30
0.0
 11
112.107
 21
106.327
 31
0.0
  0
LINE
  8
0
 62
     0
 10
112.107
 20
106.327
 30
0.0
 11
112.107
 21
92.3272
 31
0.0
  0
LINE
  8
0
 62
     0
 10
112.107
 20
92.3272
 30
0.0
 11
98.1082
 21
92.3272
 31
0.0
  0
LINE
  8
0
 62
     0
 10
98.1082
 20
92.3272
 30
0.0
 11
98.1082
 21
106.327
 31
0.0
  0
LINE
  8
0
 62
     0
 10
79.0582
 20
106.327
 30
0.0
 11
93.0575
 21
106.327
 31
0.0
  0
LINE
  8
0
 62
     0
 10
93.0575
 20
106.327
 30
0.0
 11
93.0575
 21
92.3272
 31
0.0
  0
LINE
  8
0
 62
     0
 10
93.0575
 20
92.3272
 30
0.0
 11
79.0582
 21
92.3272
 31
0.0
  0
LINE
  8
0
 62
     0
 10
79.0582
 20
92.3272
 30
0.0
 11
79.0582
 21
106.327
 31
0.0
  0
LINE
  8
0
 62
     0
 10
60.0082
 20
106.327
 30
0.0
 11
74.0075
 21
106.327
 31
0.0
  0
LINE
  8
0
 62
     0
 10
74.0075
 20
106.327
 30
0.0
 11
74.0075
 21
92.3272
 31
0.0
  0
LINE
  8
0
 62
     0
 10
74.0075
 20
92.3272
 30
0.0
 11
60.0082
 21
92.3272
 31
0.0
  0
LINE
  8
0
 62
     0
 10
60.0082
 20
92.3272
 30
0.0
 11
60.0082
 21
106.327
 31
0.0
  0
LINE
  8
0
 62
     0
 10
40.9582
 20
106.327
 30
0.0
 11
54.9575
 21
106.327
 31
0.0
  0
LINE
  8
0
 62
     0
 10
54.9575
 20
106.327
 30
0.0
 11
54.9575
 21
92.3272
 31
0.0
  0
LINE
  8
0
 62
     0
 10
54.9575
 20
92.3272
 30
0.0
 11
40.9582
 21
92.3272
 31
0.0
  0
LINE
  8
0
 62
     0
 10
40.9582
 20
92.3272
 30
0.0
 11
40.9582
 21
106.327
 31
0.0
  0
LINE
  8
0
 62
     0
 10
17.1456
 20
106.327
 30
0.0
 11
31.1451
 21
106.327
 31
0.0
  0
LINE
  8
0
 62
     0
 10
31.1451
 20
106.327
 30
0.0
 11
31.1451
 21
92.3272
 31
0.0
  0
LINE
  8
0
 62
     0
 10
31.1451
 20
92.3272
 30
0.0
 11
17.1456
 21
92.3272
 31
0.0
  0
LINE
  8
0
 62
     0
 10
17.1456
 20
92.3272
 30
0.0
 11
17.1456
 21
106.327
 31
0.0
  0
LINE
  8
0
 62
     0
 10
117.158
 20
125.378
 30
0.0
 11
131.157
 21
125.378
 31
0.0
  0
LINE
  8
0
 62
     0
 10
131.157
 20
125.378
 30
0.0
 11
131.157
 21
111.377
 31
0.0
  0
LINE
  8
0
 62
     0
 10
131.157
 20
111.377
 30
0.0
 11
117.158
 21
111.377
 31
0.0
  0
LINE
  8
0
 62
     0
 10
117.158
 20
111.377
 30
0.0
 11
117.158
 21
125.378
 31
0.0
  0
LINE
  8
0
 62
     0
 10
98.1082
 20
125.378
 30
0.0
 11
112.107
 21
125.378
 31
0.0
  0
LINE
  8
0
 62
     0
 10
112.107
 20
125.378
 30
0.0
 11
112.107
 21
111.377
 31
0.0
  0
LINE
  8
0
 62
     0
 10
112.107
 20
111.377
 30
0.0
 11
98.1082
 21
111.377
 31
0.0
  0
LINE
  8
0
 62
     0
 10
98.1082
 20
111.377
 30
0.0
 11
98.1082
 21
125.378
 31
0.0
  0
LINE
  8
0
 62
     0
 10
79.0582
 20
125.378
 30
0.0
 11
93.0575
 21
125.378
 31
0.0
  0
LINE
  8
0
 62
     0
 10
93.0575
 20
125.378
 30
0.0
 11
93.0575
 21
111.377
 31
0.0
  0
LINE
  8
0
 62
     0
 10
93.0575
 20
111.377
 30
0.0
 11
79.0582
 21
111.377
 31
0.0
  0
LINE
  8
0
 62
     0
 10
79.0582
 20
111.377
 30
0.0
 11
79.0582
 21
125.378
 31
0.0
  0
LINE
  8
0
 62
     0
 10
60.0082
 20
125.378
 30
0.0
 11
74.0075
 21
125.378
 31
0.0
  0
LINE
  8
0
 62
     0
 10
74.0075
 20
125.378
 30
0.0
 11
74.0075
 21
111.377
 31
0.0
  0
LINE
  8
0
 62
     0
 10
74.0075
 20
111.377
 30
0.0
 11
60.0082
 21
111.377
 31
0.0
  0
LINE
  8
0
 62
     0
 10
60.0082
 20
111.377
 30
0.0
 11
60.0082
 21
125.378
 31
0.0
  0
LINE
  8
0
 62
     0
 10
40.9582
 20
125.378
 30
0.0
 11
54.9575
 21
125.378
 31
0.0
  0
LINE
  8
0
 62
     0
 10
54.9575
 20
125.378
 30
0.0
 11
54.9575
 21
111.377
 31
0.0
  0
LINE
  8
0
 62
     0
 10
54.9575
 20
111.377
 30
0.0
 11
40.9582
 21
111.377
 31
0.0
  0
LINE
  8
0
 62
     0
 10
40.9582
 20
111.377
 30
0.0
 11
40.9582
 21
125.378
 31
0.0
  0
LINE
  8
0
 62
     0
 10
21.9081
 20
125.378
 30
0.0
 11
35.9075
 21
125.378
 31
0.0
  0
LINE
  8
0
 62
     0
 10
35.9075
 20
125.378
 30
0.0
 11
35.9075
 21
111.377
 31
0.0
  0
LINE
  8
0
 62
     0
 10
35.9075
 20
111.377
 30
0.0
 11
21.9081
 21
111.377
 31
0.0
  0
LINE
  8
0
 62
     0
 10
21.9081
 20
111.377
 30
0.0
 11
21.9081
 21
125.378
 31
0.0
  0
ENDSEC
  0
EOF
