<?xml version="1.0" encoding="UTF-8" standalone="no"?>
<svg
   xmlns:dc="http://purl.org/dc/elements/1.1/"
   xmlns:cc="http://creativecommons.org/ns#"
   xmlns:rdf="http://www.w3.org/1999/02/22-rdf-syntax-ns#"
   xmlns:svg="http://www.w3.org/2000/svg"
   xmlns="http://www.w3.org/2000/svg"
   xmlns:sodipodi="http://sodipodi.sourceforge.net/DTD/sodipodi-0.dtd"
   xmlns:inkscape="http://www.inkscape.org/namespaces/inkscape"
   width="190.430mm"
   height="142.805mm"
   viewBox="0.000 0.000 190.430 142.805"
   version="1.1"
   id="svg78"
   sodipodi:docname="topplate-curved.svg"
   inkscape:version="1.0.1 (3bc2e813f5, 2020-09-07)">
  <metadata
     id="metadata84">
    <rdf:RDF>
      <cc:Work
         rdf:about="">
        <dc:format>image/svg+xml</dc:format>
        <dc:type
           rdf:resource="http://purl.org/dc/dcmitype/StillImage" />
        <dc:title />
      </cc:Work>
    </rdf:RDF>
  </metadata>
  <defs
     id="defs82">
    <inkscape:path-effect
       effect="fillet_chamfer"
       id="path-effect229"
       is_visible="true"
       lpeversion="1"
       satellites_param="F,0,0,1,0,7.5590551,0,1 @ F,0,0,1,0,7.5590551,0,1 @ F,0,0,1,0,7.5590551,0,1 @ F,0,0,1,0,7.5590551,0,1 @ F,0,0,1,0,7.5590551,0,1 @ F,0,0,1,0,7.5590551,0,1 @ F,0,0,1,0,7.5590551,0,1"
       unit="mm"
       method="auto"
       mode="F"
       radius="2"
       chamfer_steps="1"
       flexible="false"
       use_knot_distance="true"
       apply_no_radius="true"
       apply_with_radius="true"
       only_selected="false"
       hide_knots="false" />
  </defs>
  <sodipodi:namedview
     pagecolor="#ffffff"
     bordercolor="#666666"
     borderopacity="1"
     objecttolerance="10"
     gridtolerance="10"
     guidetolerance="10"
     inkscape:pageopacity="0"
     inkscape:pageshadow="2"
     inkscape:window-width="2340"
     inkscape:window-height="1504"
     id="namedview80"
     showgrid="false"
     inkscape:lockguides="true"
     showguides="false"
     inkscape:snap-grids="true"
     inkscape:snap-intersection-paths="true"
     inkscape:zoom="2.2599769"
     inkscape:cx="402.89449"
     inkscape:cy="285.42325"
     inkscape:window-x="1292"
     inkscape:window-y="284"
     inkscape:window-maximized="0"
     inkscape:current-layer="svg78"
     inkscape:document-rotation="0" />
  <polygon
     points="157.414,117.819 165.444,129.287 176.912,121.257 168.882,109.789"
     style="fill:none;stroke-width:0.1;stroke:black"
     id="polygon12" />
  <polygon
     points="142.174,105.065 153.642,113.095 161.672,101.626 150.204,93.596"
     style="fill:none;stroke-width:0.1;stroke:black"
     id="polygon14" />
  <polygon
     points="122.063,88.726 122.063,102.726 136.063,102.726 136.063,88.726"
     style="fill:none;stroke-width:0.1;stroke:black"
     id="polygon16" />
  <polygon
     points="103.013,88.726 103.013,102.726 117.013,102.726 117.013,88.726"
     style="fill:none;stroke-width:0.1;stroke:black"
     id="polygon18" />
  <polygon
     points="83.963,88.726 83.963,102.726 97.963,102.726 97.963,88.726"
     style="fill:none;stroke-width:0.1;stroke:black"
     id="polygon20" />
  <polygon
     points="64.913,88.726 64.913,102.726 78.913,102.726 78.913,88.726"
     style="fill:none;stroke-width:0.1;stroke:black"
     id="polygon22" />
  <polygon
     points="45.863,88.726 45.863,102.726 59.863,102.726 59.863,88.726"
     style="fill:none;stroke-width:0.1;stroke:black"
     id="polygon24" />
  <polygon
     points="26.813,88.726 26.813,102.726 40.813,102.726 40.813,88.726"
     style="fill:none;stroke-width:0.1;stroke:black"
     id="polygon26" />
  <polygon
     points="141.113,69.676 141.113,83.676 155.113,83.676 155.113,69.676"
     style="fill:none;stroke-width:0.1;stroke:black"
     id="polygon28" />
  <polygon
     points="122.063,69.676 122.063,83.676 136.063,83.676 136.063,69.676"
     style="fill:none;stroke-width:0.1;stroke:black"
     id="polygon30" />
  <polygon
     points="103.013,69.676 103.013,83.676 117.013,83.676 117.013,69.676"
     style="fill:none;stroke-width:0.1;stroke:black"
     id="polygon32" />
  <polygon
     points="83.963,69.676 83.963,83.676 97.963,83.676 97.963,69.676"
     style="fill:none;stroke-width:0.1;stroke:black"
     id="polygon34" />
  <polygon
     points="64.913,69.676 64.913,83.676 78.913,83.676 78.913,69.676"
     style="fill:none;stroke-width:0.1;stroke:black"
     id="polygon36" />
  <polygon
     points="45.863,69.676 45.863,83.676 59.863,83.676 59.863,69.676"
     style="fill:none;stroke-width:0.1;stroke:black"
     id="polygon38" />
  <polygon
     points="22.051,69.676 22.051,83.676 36.051,83.676 36.051,69.676"
     style="fill:none;stroke-width:0.1;stroke:black"
     id="polygon40" />
  <polygon
     points="122.063,50.626 122.063,64.626 136.063,64.626 136.063,50.626"
     style="fill:none;stroke-width:0.1;stroke:black"
     id="polygon42" />
  <polygon
     points="103.013,50.626 103.013,64.626 117.013,64.626 117.013,50.626"
     style="fill:none;stroke-width:0.1;stroke:black"
     id="polygon44" />
  <polygon
     points="83.963,50.626 83.963,64.626 97.963,64.626 97.963,50.626"
     style="fill:none;stroke-width:0.1;stroke:black"
     id="polygon46" />
  <polygon
     points="64.913,50.626 64.913,64.626 78.913,64.626 78.913,50.626"
     style="fill:none;stroke-width:0.1;stroke:black"
     id="polygon48" />
  <polygon
     points="45.863,50.626 45.863,64.626 59.863,64.626 59.863,50.626"
     style="fill:none;stroke-width:0.1;stroke:black"
     id="polygon50" />
  <polygon
     points="26.813,50.626 26.813,64.626 40.813,64.626 40.813,50.626"
     style="fill:none;stroke-width:0.1;stroke:black"
     id="polygon52" />
  <polygon
     points="122.063,31.576 122.063,45.576 136.063,45.576 136.063,31.576"
     style="fill:none;stroke-width:0.1;stroke:black"
     id="polygon54" />
  <polygon
     points="103.013,31.576 103.013,45.576 117.013,45.576 117.013,31.576"
     style="fill:none;stroke-width:0.1;stroke:black"
     id="polygon56" />
  <polygon
     points="83.963,31.576 83.963,45.576 97.963,45.576 97.963,31.576"
     style="fill:none;stroke-width:0.1;stroke:black"
     id="polygon58" />
  <polygon
     points="64.913,31.576 64.913,45.576 78.913,45.576 78.913,31.576"
     style="fill:none;stroke-width:0.1;stroke:black"
     id="polygon60" />
  <polygon
     points="45.863,31.576 45.863,45.576 59.863,45.576 59.863,31.576"
     style="fill:none;stroke-width:0.1;stroke:black"
     id="polygon62" />
  <polygon
     points="22.051,31.576 22.051,45.576 36.051,45.576 36.051,31.576"
     style="fill:none;stroke-width:0.1;stroke:black"
     id="polygon64" />
  <polygon
     points="122.063,12.525 122.063,26.526 136.063,26.526 136.063,12.525"
     style="fill:none;stroke-width:0.1;stroke:black"
     id="polygon66" />
  <polygon
     points="103.013,12.525 103.013,26.526 117.013,26.526 117.013,12.525"
     style="fill:none;stroke-width:0.1;stroke:black"
     id="polygon68" />
  <polygon
     points="83.963,12.525 83.963,26.526 97.963,26.526 97.963,12.525"
     style="fill:none;stroke-width:0.1;stroke:black"
     id="polygon70" />
  <polygon
     points="64.913,12.525 64.913,26.526 78.913,26.526 78.913,12.525"
     style="fill:none;stroke-width:0.1;stroke:black"
     id="polygon72" />
  <polygon
     points="45.863,12.525 45.863,26.526 59.863,26.526 59.863,12.525"
     style="fill:none;stroke-width:0.1;stroke:black"
     id="polygon74" />
  <polygon
     points="26.813,12.525 26.813,26.526 40.813,26.526 40.813,12.525"
     style="fill:none;stroke-width:0.1;stroke:black"
     id="polygon76" />
  <path
     id="rect92"
     style="fill:none;fill-rule:evenodd;stroke:#000000;stroke-width:0.37795276"
     d="M 65.806641,41.922336 V 400.49172 a 7.5572674,7.5572674 44.993224 0 0 7.559055,7.55727 L 504.16751,407.9471 a 17.264119,17.264119 23.632546 0 1 12.68737,5.55156 l 94.09297,101.89135 a 8.9350375,8.9350375 7.0473725 0 0 11.45463,1.41607 l 74.0759,-48.44419 a 7.3619593,7.3619593 101.05931 0 0 2.02337,-10.3521 L 606.78732,325.5449 a 24.229776,24.229776 72.629071 0 1 -4.30879,-13.77387 L 602.26952,41.922334 a 7.5649119,7.5649119 44.977812 0 0 -7.56491,-7.559053 H 73.365696 a 7.5590551,7.5590551 135 0 0 -7.559055,7.559055 z"
     transform="scale(0.26458334)"
     inkscape:path-effect="#path-effect229"
     inkscape:original-d="M 65.806641 34.363281 L 65.806641 408.05078 L 511.72656 407.94531 L 616.07617 520.94336 L 702.80469 464.22461 L 602.48438 319.33008 L 602.26367 34.363281 L 65.806641 34.363281 z " />
</svg>
